<svg xmlns="http://www.w3.org/2000/svg" viewBox="0 0 1024 1024">
  <defs>
    <radialGradient id="bg" cx="50%" cy="36%" r="75%">
      <stop offset="0%" stop-color="#6B6FEE"/>
      <stop offset="100%" stop-color="#4B4FD8"/>
    </radialGradient>
    <linearGradient id="outerG" x1="0" y1="0" x2="1" y2="1">
      <stop offset="0%" stop-color="#FFFFFF"/>
      <stop offset="55%" stop-color="#E4E5FA"/>
      <stop offset="100%" stop-color="#C7C9EF"/>
    </linearGradient>
    <radialGradient id="innerG" cx="35%" cy="25%" r="80%">
      <stop offset="0%" stop-color="#FFFFFF"/>
      <stop offset="55%" stop-color="#EDEDFC"/>
      <stop offset="100%" stop-color="#D3D4F5"/>
    </radialGradient>
  </defs>
  <rect width="1024" height="1024" rx="180" fill="url(#bg)"/>
  <g transform="translate(266,150) scale(6)">
    <ellipse cx="50" cy="102" rx="38" ry="34" fill="url(#outerG)"/>
    <path d="M28 46 C20.2 58.8 16.3 71.6 21.5 84.4 C18.9 81.2 16.3 87.6 20.2 95.6 C24.1 105.2 31.9 105.2 35.8 95.6 C39.7 87.6 37.1 81.2 34.5 84.4 C39.7 71.6 35.8 58.8 28 46 Z" fill="url(#outerG)"/>
    <path d="M50 18 C37.4 38.8 31.1 59.6 39.5 80.4 C35.3 75.2 31.1 85.6 37.4 98.6 C43.7 114.2 56.3 114.2 62.6 98.6 C68.9 85.6 64.7 75.2 60.5 80.4 C68.9 59.6 62.6 38.8 50 18 Z" fill="url(#outerG)" stroke="#B9BAE8" stroke-width="0.8"/>
    <path d="M46 46 C34 62 30 78 38 92 C34 88 30 96 36 106 C42 118 58 118 64 106 C70 96 66 88 62 92 C70 78 66 62 54 46 C51 50 49 50 46 46 Z" fill="url(#innerG)" stroke="#C7C9EF" stroke-width="0.6"/>
    <ellipse cx="38" cy="32" rx="9" ry="13" fill="#FFFFFF" opacity="0.5"/>
  </g>
</svg>
